{"title":"Alvin en de Chipmunks 3 2011 DVDrip English Klam","uid":7095179,"size":1789052871,"categoryP":"video","categoryS":"movies","magnet":"?xt=urn:btih:05c48f2149610a2793b4066ef3dc4729304e2d2e&amp;dn=Alvin+en+de+Chipmunks+3+2011+DVDrip+English+Klam&amp;tr=udp%3A%2F%2Ftracker.openbittorrent.com%3A80&amp;tr=udp%3A%2F%2Fopen.demonii.com%3A1337&amp;tr=udp%3A%2F%2Ftracker.coppersurfer.tk%3A6969&amp;tr=udp%3A%2F%2Fexodus.desync.com%3A6969","seeders":0,"leechers":1,"uploader":"Klambake","files":-1,"time":1331545024,"description":"With: Matthew Gray Gubler, Amy Poehler and Jesse McCartney\n\nlvin, Simon, Theodore en de Chipettes maken een cruise, en zoals gebruikelijk veranderen ze het luxe cruiseschip in hun eigen speeltuin. Totdat ze 'schipbreuk' lijden en op een tropisch eiland belanden. Terwijl Dave Seville op zoek gaat naar zijn vermiste sterren, doen de Munks en de Chipettes waar ze goed in zijn: zingen, dansen en er een bende van maken. Maar op het eiland leeft ook een schipbreukeling, die niets onder doet voor Alvin en de Chipmunks. Samen met hun nieuwe vriendje beleven ze een doldwaas avontuur, vol verrassingen en wijze levenslessen.\n\nPlaying around while aboard a cruise ship, the Chipmunks and Chipettes accidentally go overboard and end up marooned in a tropical paradise. They discover their new turf is not as deserted as it seems. \n\n------------------------ Dutch Friends ------------------------\n---------------------------------------------------------------\n- Bezoek ook eens mijn vrienden op: &lt;a href=&quot; http://www.Film-Test.nl&quot; rel=&quot;nofollow&quot; target=&quot;_NEW&quot;&gt; http://www.Film-Test.nl&lt;/a&gt; --\n----- voor mijn Nederlandse Sync. ondertitels ---- en meer ----\n------- http://www.Film-Test.nl ---- voor Films en meer -------\n---------------------------------------------------------------\n\nGeneral:\n\nComplete name                    : Alvin en de Chipmunks 3Alvin en de Chipmunks 3.avi\nFormat                           : AVI\nFormat/Info                      : Audio Video Interleave\nFile size                        : 1.67 GiB\nDuration                         : 1h 27mn\nOverall bit rate                 : 2 737 Kbps\n\nVideo:\n\nFormat                           : MPEG-4 Visual\nFormat profile                   : Simple@L3\nFormat settings, BVOP            : No\nFormat settings, QPel            : No\nFormat settings, GMC             : No warppoints\nFormat settings, Matrix          : Default (H.263)\nCodec ID                         : XVID\nCodec ID/Hint                    : XviD\nDuration                         : 1h 27mn\nBit rate                         : 2 278 Kbps\nWidth                            : 652 pixels\nHeight                           : 352 pixels\nDisplay aspect ratio             : 1.852\nFrame rate                       : 23.976 fps\nColor space                      : YUV\nChroma subsampling               : 4:2:0\nBit depth                        : 8 bits\nScan type                        : Progressive\nCompression mode                 : Lossy\nBits/(Pixel*Frame)               : 0.414\nStream size                      : 1.39 GiB (83%)\nWriting library                  : XviD 1.1.2 (UTC 2006-11-01)\n\nAudio:\n\nFormat                           : AC-3\nFormat/Info                      : Audio Coding 3\nMode extension                   : CM (complete main)\nCodec ID                         : 2000\nDuration                         : 1h 27mn\nBit rate mode                    : Constant\nBit rate                         : 448 Kbps\nChannel(s)                       : 6 channels\nChannel positions                : Front: L C R, Side: L R, LFE\nSampling rate                    : 48.0 KHz\nBit depth                        : 16 bits\nCompression mode                 : Lossy\nStream size                      : 279 MiB (16%)\nAlignment                        : Aligned on interleaves\nInterleave, duration             : 32 ms (0.77 video frame)\nInterleave, preload duration     : 64 ms\n\n","torrent":{"xt":"urn:btih:05c48f2149610a2793b4066ef3dc4729304e2d2e","amp;dn":"Alvin+en+de+Chipmunks+3+2011+DVDrip+English+Klam","amp;tr":["udp%3A%2F%2Ftracker.openbittorrent.com%3A80","udp%3A%2F%2Fopen.demonii.com%3A1337","udp%3A%2F%2Ftracker.coppersurfer.tk%3A6969","udp%3A%2F%2Fexodus.desync.com%3A6969"],"infoHash":"05c48f2149610a2793b4066ef3dc4729304e2d2e","infoHashBuffer":{"type":"Buffer","data":[5,196,143,33,73,97,10,39,147,180,6,110,243,220,71,41,48,78,45,46]},"announce":[],"urlList":[]}}